# xmcd
#
# Track frame offsets:
#	150
#	62872
#	104307
#	173237
#
# Disc length: 3458 seconds
#
# Revision: 1
# Processed by: cddbd v1.5.1PL0 Copyright (c) Steve Scherf et al.
# Submitted via: CDex 1.50Beta5
#
DISCID=300d8004
DTITLE=ズービン・メータ指揮／ロスアンジェルス・フィルハーモニック - ボレロ/グレイテスト・ヒット(メータ指揮)
DYEAR=1900
DGENRE=Classical
TTITLE0=ボレロ
TTITLE1=スラブ行進曲
TTITLE2=序曲「1812年」
TTITLE3=幻想序曲「ロメオとジュリエット」
EXTD=
EXTT0=
EXTT1=
EXTT2=
EXTT3=
PLAYORDER=
